<?xml version="1.0" encoding="utf-8"?>
<!-- Generator: Adobe Illustrator 25.0.1, SVG Export Plug-In . SVG Version: 6.00 Build 0)  -->
<svg version="1.1" id="Camada_1" xmlns="http://www.w3.org/2000/svg" xmlns:xlink="http://www.w3.org/1999/xlink" x="0px" y="0px"
	 viewBox="0 0 595.3 354.8" style="enable-background:new 0 0 595.3 354.8;" xml:space="preserve">
<style type="text/css">
	.st0{clip-path:url(#SVGID_2_);fill:#004957;}
	.st1{clip-path:url(#SVGID_2_);fill:#FDFEFD;}
	.st2{fill:#FDFEFD;}
	.st3{clip-path:url(#SVGID_4_);fill:#FDFEFD;}
	.st4{clip-path:url(#SVGID_4_);fill:#FFFFFF;}
	.st5{fill:#FFFFFF;}
	.st6{clip-path:url(#SVGID_6_);fill:#FFFFFF;}
	.st7{clip-path:url(#SVGID_8_);fill:#FFFFFF;}
</style>
<g>
	<g>
		<defs>
			<rect id="SVGID_1_" x="3.5" width="588.4" height="354.8"/>
		</defs>
		<clipPath id="SVGID_2_">
			<use xlink:href="#SVGID_1_"  style="overflow:visible;"/>
		</clipPath>
		<path class="st0" d="M445.5,320.2c0,1,0.2,1.9,0.6,2.8c0.4,0.8,0.9,1.6,1.5,2.2c0.6,0.6,9.7,8.8,10.5,9.1
			c0.8-0.4,9.9-8.5,10.5-9.1c0.6-0.6,1.2-1.4,1.5-2.2c0.4-0.8,0.6-1.8,0.6-2.8c0-1-0.2-1.9-0.6-2.7c-0.4-0.8-0.9-1.6-1.5-2.2
			c-0.6-0.6-1.4-1.2-2.2-1.5c-0.8-0.4-1.8-0.6-2.8-0.6c-1,0-1.9,0.2-2.7,0.7c-0.8,0.4-1.6,1-2.2,1.8c-0.2,0.2-0.3,0.4-0.5,0.6
			c-0.2-0.2-0.3-0.4-0.5-0.6c-0.6-0.7-1.4-1.4-2.2-1.8c-0.8-0.4-1.8-0.7-2.8-0.7c-1,0-1.9,0.2-2.7,0.6c-0.8,0.4-1.6,0.9-2.2,1.5
			c-0.6,0.6-1.2,1.4-1.5,2.2C445.7,318.3,445.5,319.3,445.5,320.2"/>
		<path class="st0" d="M127.2,275.3H97.6l33.3-133.4H163l-16,64.5c6.1-11.9,16.9-21.4,31.3-21.4c17.6,0,27.4,13.5,27.4,32
			c0,30.3-19.2,60-47.5,60c-13.4,0-22.8-9.1-23.1-22.3L127.2,275.3z M137.9,242.5c-0.9,3.9-1.6,7.8-1.6,11.6
			c0.2,8.5,4.3,13.5,10.3,13.5c14.1,0,26.7-30.1,26.7-57.3c0-9.4-2.3-16.4-9.4-16.4c-7.7,0-15.1,9.8-18.3,18.3L137.9,242.5z"/>
		<path class="st0" d="M269.5,185c23.1,0,40.1,15.1,40.1,36.5c0,32.6-27.4,55.6-58,55.6c-23.1,0-40.2-15.1-40.2-36.5
			C211.2,208,238.8,185,269.5,185 M250.6,275.3c9.1,0,16.2-14.6,21.9-34.7c4.6-15.8,7.3-30.1,7.3-39.9c0-8.9-2.8-13.9-9.4-13.9
			c-9.3,0-16.2,14.6-22.1,34.5c-4.5,16-7.1,30.1-7.1,39.9C241.1,270.3,244,275.3,250.6,275.3"/>
		<path class="st0" d="M315.2,186.8h12.3l4.1-14.8l35.1-14.1l-7.1,28.8h26.7l-0.9,1.8h-26.2L342.5,255c-0.4,2.1-0.7,4.1-0.7,5.7
			c0,6.2,3.6,10,9.6,10c10.9,0,19.4-11.2,24.6-28.5l1.6,0.4c-5.7,19.4-16.6,34.5-39.2,34.5c-15,0-26.7-8.2-26.7-23.3
			c0-2.7,0.4-5.7,1.2-8.7l14.1-56.4h-12.3L315.2,186.8z"/>
		<path class="st0" d="M412.8,258.4c-0.5,2.1-0.7,4.1-0.7,5.5c0,3.6,1.4,5.5,4.6,5.5c3.6,0,7.8-3,12.5-12.1l1.2,0.5
			c-7.3,15.5-17.8,19.2-28.5,19.2c-13.7,0-20.7-7.7-20.7-17.8c0-2,0.2-4.1,0.7-6.2l16.4-66.2h32.2L412.8,258.4z M408.9,144.2h32.2
			l-7.3,29.7h-32.4L408.9,144.2z"/>
		<path class="st1" d="M164.6,321.8c11.2,0,15.6-4,15.6-13.2s-4.4-13.1-15.6-13.1h-6.3v26.3H164.6z M158.3,329.9v23.9h-17.4v-66.6
			h30.3c15.5,0,26.9,7.2,26.9,21.3c0,14.2-11.4,21.4-26.9,21.4H158.3z"/>
		<path class="st1" d="M220.6,317.6h8.5c9.3,0,13.9-3.7,13.9-11.1c0-6.8-4.6-11-13.9-11h-8.5V317.6z M220.6,353.8h-17.4v-66.6h32.6
			c13.7,0,25.4,5.1,25.4,18c0,10.9-10.1,16.4-21.6,16.6v0.2c8.3,0.5,14,3.9,16.9,11.9l3,8c1.8,4.9,3,7.3,6.4,11.9h-19.7
			c-2.1-3.5-3.1-6.4-4.5-10.3l-3.6-10.5c-1.9-5.5-4.6-7.3-10.5-7.3h-7V353.8z"/>
		<path class="st1" d="M301.1,347.3c11.3,0,15.8-9.5,15.8-26.8s-4.5-26.8-15.8-26.8c-11.3,0-15.8,9.5-15.8,26.8
			S289.8,347.3,301.1,347.3 M301.1,286.3c19.4,0,35.3,14.3,35.3,34.2c0,20-15.9,34.2-35.3,34.2s-35.3-14.3-35.3-34.2
			C265.8,300.6,281.7,286.3,301.1,286.3"/>
	</g>
	<polygon class="st2" points="396.6,287.2 380.2,327.4 364.6,287.2 342.5,287.2 342.5,353.8 352.7,353.8 352.7,301.9 372.8,353.8 
		378.9,353.8 399.6,301.9 399.6,353.8 416.6,353.8 416.6,287.2 	"/>
	<g>
		<defs>
			<rect id="SVGID_3_" x="3.5" width="588.4" height="354.8"/>
		</defs>
		<clipPath id="SVGID_4_">
			<use xlink:href="#SVGID_3_"  style="overflow:visible;"/>
		</clipPath>
		<path class="st3" d="M458,347.3c11.3,0,15.8-9.5,15.8-26.8s-4.5-26.8-15.8-26.8c-11.3,0-15.8,9.5-15.8,26.8S446.6,347.3,458,347.3
			 M458,286.3c19.4,0,35.3,14.3,35.3,34.2c0,20-15.9,34.2-35.3,34.2c-19.4,0-35.3-14.3-35.3-34.2C422.7,300.6,438.6,286.3,458,286.3
			"/>
		<path class="st4" d="M185.8,10.4c-17.1,0-31,14.4-31,32.2c0,17.7,13.9,32.2,31,32.2c17.1,0,31-14.4,31-32.2
			C216.7,24.9,202.8,10.4,185.8,10.4 M185.8,68.7c-11.9,0-19-9.7-19-26c0-16.3,7.1-26.1,19-26.1c11.8,0,18.9,9.7,18.9,26.1
			C204.6,58.9,197.6,68.7,185.8,68.7"/>
	</g>
	<polygon class="st5" points="219.4,17.4 242.1,17.4 242.1,74 253.5,74 253.5,17.4 276.2,17.4 276.2,11.3 219.4,11.3 	"/>
	<rect x="287.8" y="11.3" class="st5" width="11.5" height="62.7"/>
	<g>
		<defs>
			<rect id="SVGID_5_" x="3.5" width="588.4" height="354.8"/>
		</defs>
		<clipPath id="SVGID_6_">
			<use xlink:href="#SVGID_5_"  style="overflow:visible;"/>
		</clipPath>
		<path class="st6" d="M361,56.4c-3.9,10.5-13,12.1-18.1,12.1c-11.9,0-19.1-9.7-19.1-25.9c0-16.2,7.1-25.9,19.1-25.9
			c8.6,0,15.1,4.5,17.9,12.2L362,32l5.6-2.8l-0.9-2.4c-3.8-10.4-12.6-16.4-24.2-16.4c-17.2,0-30.6,14.2-30.6,32.3
			c0,18.3,13.2,32.1,30.6,32.1c11.6,0,20.5-5.9,24.4-16.2l0.9-2.4l-5.6-2.8L361,56.4z"/>
		<path class="st6" d="M488.3,62.6l-3.3-9.5l0,0c-1.3-3.5-3.7-6.3-7.1-8.3c6-2.6,11.2-7.5,11.2-15.4c0-11.3-9.3-18.1-24.8-18.1
			h-23.4V74h11.5V47.3h10c7.3,0,9.7,2.9,11.7,8.6l3.2,9.1c1.1,3.4,2.3,5.9,3.6,7.8l0.9,1.2h15.5l-5.5-5
			C490.5,67.7,489.3,65.5,488.3,62.6 M452.4,17.4h11.1c9.7,0,13.8,3.6,13.8,12.1c0,8.1-4.2,11.7-13.7,11.7h-11.2V17.4z"/>
	</g>
	<rect x="505.8" y="11.3" class="st5" width="11.5" height="62.7"/>
	<g>
		<defs>
			<rect id="SVGID_7_" x="3.5" width="588.4" height="354.8"/>
		</defs>
		<clipPath id="SVGID_8_">
			<use xlink:href="#SVGID_7_"  style="overflow:visible;"/>
		</clipPath>
		<path class="st7" d="M560.9,10.4c-17.1,0-31,14.4-31,32.2c0,17.7,13.9,32.2,31,32.2c17.1,0,31-14.4,31-32.2
			C591.8,24.9,577.9,10.4,560.9,10.4 M560.9,16.6c11.8,0,18.9,9.7,18.9,26.1c0,16.3-7.1,26-18.9,26c-11.9,0-19-9.7-19-26
			C541.9,26.3,549,16.6,560.9,16.6"/>
		<path class="st7" d="M34.5,10.4c-17.1,0-31,14.4-31,32.2c0,17.7,13.9,32.2,31,32.2c17.1,0,31-14.4,31-32.2
			C65.4,24.9,51.6,10.4,34.5,10.4 M34.5,68.7c-11.9,0-19-9.7-19-26c0-16.3,7.1-26.1,19-26.1c11.8,0,18.9,9.7,18.9,26.1
			C53.4,58.9,46.3,68.7,34.5,68.7"/>
		<path class="st7" d="M130.4,35.9c6.2-3.2,10.7-8.7,10.7-16c0-12.6-10-19.9-27.4-19.9H80.9v74.6h35.5c17.1,0,27.7-8.1,27.7-21.1
			C144.1,44.8,138.1,38.9,130.4,35.9 M114,33H93.6V6.2h19.3c10.9,0,15.5,4.1,15.5,13.7C128.3,29.1,124.1,33,114,33 M93.6,68.4V39.2
			h20.3c6.4,0,17.2,1.9,17.2,14.5c0,10.3-4.7,14.7-15.6,14.7H93.6z"/>
	</g>
	<path class="st5" d="M409.2,1.3h-6.7L370.9,74h6.7l9.3-21.3h22.7l9.7,21.3h12.2L404,13.4L409.2,1.3z M389.6,46.6l8.4-19.4l8.8,19.4
		H389.6z"/>
</g>
</svg>
