<svg width="93" height="12" viewBox="0 0 93 12" fill="none" xmlns="http://www.w3.org/2000/svg">
<path d="M28.6277 1.66845C25.9423 1.66845 23.7595 3.97861 23.7595 6.83422C23.7595 9.6738 25.9423 12 28.6277 12C31.313 12 33.4958 9.68984 33.4958 6.83422C33.4801 3.99465 31.2973 1.66845 28.6277 1.66845ZM28.6277 11.0214C26.7589 11.0214 25.644 9.46524 25.644 6.85027C25.644 4.23529 26.7589 2.6631 28.6277 2.6631C30.4807 2.6631 31.5956 4.21925 31.5956 6.85027C31.5799 9.4492 30.4807 11.0214 28.6277 11.0214Z" fill="white"/>
<path d="M33.9041 2.79144H37.4688V11.8717H39.259V2.79144H42.8237V1.81283H33.9041V2.79144Z" fill="white"/>
<path d="M46.4512 1.81283H44.6453V11.8717H46.4512V1.81283Z" fill="white"/>
<path d="M56.1404 9.04813C55.5279 10.7326 54.0989 10.9893 53.298 10.9893C51.4293 10.9893 50.2986 9.43315 50.2986 6.83422C50.2986 4.23529 51.4136 2.67914 53.298 2.67914C54.6485 2.67914 55.6693 3.40107 56.109 4.63636L56.2974 5.13369L57.1768 4.68449L57.0355 4.29946C56.4387 2.63102 55.0568 1.66845 53.2352 1.66845C50.5342 1.66845 48.4299 3.94652 48.4299 6.85027C48.4299 9.7861 50.5028 12 53.2352 12C55.0568 12 56.4544 11.0535 57.0669 9.40107L57.2082 9.01604L56.3288 8.56684L56.1404 9.04813Z" fill="white"/>
<path d="M76.1311 10.0428L75.6128 8.51872C75.4087 7.95722 75.0318 7.50802 74.4979 7.18717C75.4401 6.77005 76.2567 5.98396 76.2567 4.71658C76.2567 2.90374 74.7962 1.81283 72.3622 1.81283H68.6875V11.8717H70.4935V7.58823H72.0638C73.2102 7.58823 73.5871 8.05348 73.9011 8.96791L74.4037 10.4278C74.5764 10.9733 74.7648 11.3743 74.969 11.6791L75.1103 11.8717H77.5444L76.6807 11.0695C76.4765 10.861 76.2881 10.508 76.1311 10.0428ZM70.4935 2.79144H72.2366C73.7598 2.79144 74.4037 3.36898 74.4037 4.73262C74.4037 6.03209 73.7441 6.60963 72.2523 6.60963H70.4935V2.79144Z" fill="white"/>
<path d="M80.6851 1.81283H78.8792V11.8717H80.6851V1.81283Z" fill="white"/>
<path d="M87.5319 1.66845C84.8466 1.66845 82.6638 3.97861 82.6638 6.83422C82.6638 9.6738 84.8466 12 87.5319 12C90.2172 12 92.4 9.68984 92.4 6.83422C92.3843 3.99465 90.2015 1.66845 87.5319 1.66845ZM87.5319 2.6631C89.3849 2.6631 90.4998 4.21925 90.4998 6.85027C90.4998 9.46524 89.3849 11.0214 87.5319 11.0214C85.6631 11.0214 84.5482 9.46524 84.5482 6.85027C84.5482 4.21925 85.6631 2.6631 87.5319 2.6631Z" fill="white"/>
<path d="M4.86812 1.66845C2.1828 1.66845 0 3.97861 0 6.83422C0 9.6738 2.1828 12 4.86812 12C7.55343 12 9.73623 9.68984 9.73623 6.83422C9.72053 3.99465 7.55343 1.66845 4.86812 1.66845ZM4.86812 11.0214C2.99939 11.0214 1.88443 9.46524 1.88443 6.85027C1.88443 4.23529 2.99939 2.6631 4.86812 2.6631C6.72114 2.6631 7.8361 4.21925 7.8361 6.85027C7.8361 9.4492 6.72114 11.0214 4.86812 11.0214Z" fill="white"/>
<path d="M19.9279 5.75936C20.9015 5.24599 21.6082 4.36364 21.6082 3.19251C21.6082 1.17112 20.0378 0 17.3054 0H12.1546V11.9679H17.7294C20.4147 11.9679 22.0793 10.6684 22.0793 8.58289C22.0793 7.18717 21.137 6.24064 19.9279 5.75936ZM17.3525 5.29412H14.1489V0.994652H17.1797C18.8914 0.994652 19.6138 1.65241 19.6138 3.19251C19.5981 4.66845 18.9385 5.29412 17.3525 5.29412ZM14.1489 10.9733V6.28877H17.3368C18.3418 6.28877 20.0378 6.59358 20.0378 8.61497C20.0378 10.2674 19.2997 10.9733 17.588 10.9733H14.1489Z" fill="white"/>
<path d="M63.7095 0.208556H62.6574L57.695 11.8717H58.7472L60.2076 8.45454H63.7723L65.2956 11.8717H67.2114L62.8929 2.14973L63.7095 0.208556ZM60.6316 7.47593L61.9507 4.36364L63.3326 7.47593H60.6316Z" fill="white"/>
</svg>
